REM DIRINDEX 1
REM DIRNAME folder01
TITLE ""
FILE "Disk2Track30.mp3" MP3
  TRACK 01 AUDIO
    TITLE "1:cjc069_0640"
    INDEX 01 00:00:00
  TRACK 02 AUDIO
    TITLE "1:cjc069_0641"
    INDEX 01 00:07:74
  TRACK 03 AUDIO
    TITLE "1:cjc069_0642"
    INDEX 01 00:19:07
  TRACK 04 AUDIO
    TITLE "1:cjc069_0643"
    INDEX 01 00:37:22
  TRACK 05 AUDIO
    TITLE "1:cjc069_0644"
    INDEX 01 00:46:35
  TRACK 06 AUDIO
    TITLE "0:"
    INDEX 01 01:03:71
